# xmcd
#
# Track frame offsets: 
#        150
#        17610
#        29884
#        47102
#        65330
#        72965
#        87427
#        121327
#        135412
#        159893
#        172480
#        183166
#        204980
#        220538
#        238590
#        253079
#        265148
#        284398
#        305836
#
# Disc length: 4344 seconds
#
# Revision: 0
# Processed by: cddbd v1.5.2PL0 Copyright (c) Steve Scherf et al.
# Submitted via: ExactAudioCopy v0.99pb5
#
DISCID=1710f613
DTITLE=Marvin Gaye - What's Going On - Let's Get It On
DYEAR=1986
DGENRE=R&B
TTITLE0=What's Going On
TTITLE1=What's Happening Brother
TTITLE2=Flyin' High (In The Friendly Sky)
TTITLE3=Save The Children
TTITLE4=God Is Love
TTITLE5=Mercy Mercy Me (The Ecology)
TTITLE6=Right On
TTITLE7=Wholy Holy
TTITLE8=Inner City Blues (Make Me Wanna Holler)
TTITLE9=God Is Love [Single Version]
TTITLE10=Sad Tomorrows [Single Version]
TTITLE11=Let's Get It On
TTITLE12=Please Don't Stay (Once You Go Away)
TTITLE13=If I Should Die Tonight
TTITLE14=Keep Gettin' It On
TTITLE15=Come Get To This
TTITLE16=Distant Lover
TTITLE17=You Sure Love To Ball
TTITLE18=Just To Keep You Satisfied
EXTD=
EXTT0=
EXTT1=
EXTT2=
EXTT3=
EXTT4=
EXTT5=
EXTT6=
EXTT7=
EXTT8=
EXTT9=
EXTT10=
EXTT11=
EXTT12=
EXTT13=
EXTT14=
EXTT15=
EXTT16=
EXTT17=
EXTT18=
PLAYORDER=
